<?xml version="1.0" encoding="UTF-8" standalone="no"?>
<svg
   xmlns:dc="http://purl.org/dc/elements/1.1/"
   xmlns:cc="http://creativecommons.org/ns#"
   xmlns:rdf="http://www.w3.org/1999/02/22-rdf-syntax-ns#"
   xmlns:svg="http://www.w3.org/2000/svg"
   xmlns="http://www.w3.org/2000/svg"
   xmlns:sodipodi="http://sodipodi.sourceforge.net/DTD/sodipodi-0.dtd"
   xmlns:inkscape="http://www.inkscape.org/namespaces/inkscape"
   width="14"
   height="16"
   viewBox="0 0 14 16"
   fill="none"
   version="1.1"
   id="svg837"
   sodipodi:docname="external.svg"
   inkscape:version="1.0.1 (c497b03c, 2020-09-10)">
  <metadata
     id="metadata843">
    <rdf:RDF>
      <cc:Work
         rdf:about="">
        <dc:format>image/svg+xml</dc:format>
        <dc:type
           rdf:resource="http://purl.org/dc/dcmitype/StillImage" />
        <dc:title></dc:title>
      </cc:Work>
    </rdf:RDF>
  </metadata>
  <defs
     id="defs841" />
  <sodipodi:namedview
     pagecolor="#ffffff"
     bordercolor="#666666"
     borderopacity="1"
     objecttolerance="10"
     gridtolerance="10"
     guidetolerance="10"
     inkscape:pageopacity="0"
     inkscape:pageshadow="2"
     inkscape:window-width="1391"
     inkscape:window-height="878"
     id="namedview839"
     showgrid="false"
     fit-margin-top="0"
     fit-margin-left="0"
     fit-margin-right="0"
     fit-margin-bottom="0"
     inkscape:zoom="31.482175"
     inkscape:cx="6.972063"
     inkscape:cy="6.985714"
     inkscape:window-x="49"
     inkscape:window-y="0"
     inkscape:window-maximized="0"
     inkscape:current-layer="svg837" />
  <path
     d="M 8,2 C 7.4477,2 7,2.44772 7,3 7,3.55228 7.4477,4 8,4 h 2.5858 l -6.29291,6.2929 c -0.39052,0.3905 -0.39052,1.0237 0,1.4142 0.39053,0.3905 1.02369,0.3905 1.41422,0 L 12,5.41421 V 8 c 0,0.55228 0.4477,1 1,1 0.5523,0 1,-0.44772 1,-1 V 3 C 14,2.44772 13.5523,2 13,2 Z"
     fill="#4A5568"
     id="path833"
     style="fill:#0166cc;fill-opacity:1" />
  <path
     d="M 2,4 C 0.89543,4 0,4.89543 0,6 v 8 c 0,1.1046 0.89543,2 2,2 h 8 c 1.1046,0 2,-0.8954 2,-2 v -3 c 0,-0.5523 -0.4477,-1 -1,-1 -0.5523,0 -1,0.4477 -1,1 v 3 H 2 V 6 H 5 C 5.55228,6 6,5.55228 6,5 6,4.44772 5.55228,4 5,4 Z"
     fill="#4A5568"
     id="path835"
     style="fill:#0166cc;fill-opacity:1" />
</svg>
